<svg width="337" height="90" viewBox="0 0 337 90" fill="none" xmlns="http://www.w3.org/2000/svg">
<path d="M6.869 28.173H17.361V32H1.967V1.642H6.869V28.173ZM23.9944 8.307L31.0894 25.722L37.6684 8.307H43.1294L28.8104 43.266H23.3494L28.4664 31.441L18.4904 8.307H23.9944ZM59.5967 7.92C62.3487 7.92 64.5561 8.80867 66.2187 10.586C67.8814 12.3633 68.7127 14.9003 68.7127 18.197V32H63.8107V18.713C63.8107 16.5917 63.2661 14.9577 62.1767 13.811C61.0874 12.6357 59.5967 12.048 57.7047 12.048C55.7554 12.048 54.1931 12.6787 53.0177 13.94C51.8424 15.1727 51.2547 16.993 51.2547 19.401V32H46.3527V8.307H51.2547V13.51C51.8854 11.7327 52.9461 10.3567 54.4367 9.382C55.9274 8.40733 57.6474 7.92 59.5967 7.92ZM83.9485 8.006C86.0985 8.006 87.9332 8.53633 89.4525 9.597C90.9718 10.6577 92.0325 12.0623 92.6345 13.811V0.18H97.5795V32H92.6345V26.496C92.0325 28.2447 90.9718 29.6493 89.4525 30.71C87.9332 31.7707 86.0985 32.301 83.9485 32.301C81.8845 32.301 80.0355 31.8137 78.4015 30.839C76.7962 29.8643 75.5348 28.4597 74.6175 26.625C73.7002 24.7903 73.2415 22.626 73.2415 20.132C73.2415 17.6667 73.7002 15.5167 74.6175 13.682C75.5348 11.8473 76.7962 10.4427 78.4015 9.468C80.0355 8.49333 81.8845 8.006 83.9485 8.006ZM85.4535 12.306C83.2748 12.306 81.5262 13.0083 80.2075 14.413C78.9175 15.789 78.2725 17.6953 78.2725 20.132C78.2725 22.5687 78.9175 24.4893 80.2075 25.894C81.5262 27.27 83.2748 27.958 85.4535 27.958C86.8295 27.958 88.0622 27.6427 89.1515 27.012C90.2409 26.3527 91.1009 25.4353 91.7315 24.26C92.3622 23.0847 92.6775 21.7087 92.6775 20.132C92.6775 18.584 92.3622 17.2223 91.7315 16.047C91.1009 14.843 90.2409 13.9257 89.1515 13.295C88.0622 12.6357 86.8295 12.306 85.4535 12.306ZM112.965 8.006C115.115 8.006 116.95 8.53633 118.469 9.597C119.988 10.6577 121.063 12.0623 121.694 13.811V8.307H126.596V32H121.694V26.496C121.063 28.2447 119.988 29.6493 118.469 30.71C116.95 31.7707 115.115 32.301 112.965 32.301C110.901 32.301 109.052 31.8137 107.418 30.839C105.813 29.8643 104.551 28.4597 103.634 26.625C102.717 24.7903 102.258 22.626 102.258 20.132C102.258 17.6667 102.717 15.5167 103.634 13.682C104.551 11.8473 105.813 10.4427 107.418 9.468C109.052 8.49333 110.901 8.006 112.965 8.006ZM114.47 12.306C112.291 12.306 110.543 13.0083 109.224 14.413C107.934 15.789 107.289 17.6953 107.289 20.132C107.289 22.5687 107.934 24.4893 109.224 25.894C110.543 27.27 112.291 27.958 114.47 27.958C115.846 27.958 117.079 27.6427 118.168 27.012C119.257 26.3527 120.117 25.4353 120.748 24.26C121.379 23.0847 121.694 21.7087 121.694 20.132C121.694 18.584 121.379 17.2223 120.748 16.047C120.117 14.843 119.257 13.9257 118.168 13.295C117.079 12.6357 115.846 12.306 114.47 12.306ZM137.381 0.18V32H132.479V0.18H137.381ZM165.329 19.014C165.329 19.8167 165.271 20.519 165.157 21.121H146.925C147.011 23.5577 147.684 25.3637 148.946 26.539C150.207 27.7143 151.769 28.302 153.633 28.302C155.267 28.302 156.643 27.8863 157.761 27.055C158.907 26.2237 159.61 25.12 159.868 23.744H165.114C164.798 25.4067 164.139 26.883 163.136 28.173C162.132 29.463 160.828 30.4807 159.223 31.226C157.617 31.9427 155.826 32.301 153.848 32.301C151.554 32.301 149.519 31.8137 147.742 30.839C145.993 29.8643 144.617 28.4597 143.614 26.625C142.61 24.7903 142.109 22.626 142.109 20.132C142.109 17.6667 142.61 15.5167 143.614 13.682C144.617 11.8473 145.993 10.4427 147.742 9.468C149.519 8.49333 151.554 8.006 153.848 8.006C156.17 8.006 158.191 8.49333 159.911 9.468C161.659 10.414 162.992 11.7327 163.91 13.424C164.856 15.0867 165.329 16.95 165.329 19.014ZM160.384 18.885C160.441 17.337 160.169 16.047 159.567 15.015C158.993 13.9543 158.191 13.1803 157.159 12.693C156.155 12.177 155.052 11.919 153.848 11.919C151.927 11.919 150.322 12.5067 149.032 13.682C147.742 14.8573 147.039 16.5917 146.925 18.885H160.384ZM193.685 1.341C197.412 1.341 200.508 2.287 202.973 4.179C205.438 6.071 207.101 8.63667 207.961 11.876H202.758C202.041 10.0413 200.895 8.59367 199.318 7.533C197.77 6.44367 195.864 5.899 193.599 5.899C191.793 5.899 190.173 6.34333 188.74 7.232C187.335 8.12067 186.217 9.39633 185.386 11.059C184.583 12.693 184.182 14.6137 184.182 16.821C184.182 18.9997 184.583 20.9203 185.386 22.583C186.217 24.217 187.335 25.4783 188.74 26.367C190.173 27.2557 191.793 27.7 193.599 27.7C195.864 27.7 197.77 27.1697 199.318 26.109C200.895 25.0197 202.041 23.572 202.758 21.766H207.961C207.101 25.0053 205.438 27.571 202.973 29.463C200.508 31.3263 197.412 32.258 193.685 32.258C190.818 32.258 188.281 31.613 186.074 30.323C183.867 29.0043 182.161 27.184 180.957 24.862C179.753 22.5113 179.151 19.831 179.151 16.821C179.151 13.811 179.753 11.145 180.957 8.823C182.161 6.47233 183.867 4.63766 186.074 3.319C188.281 2.00033 190.818 1.341 193.685 1.341ZM222.355 8.006C224.505 8.006 226.339 8.53633 227.859 9.597C229.378 10.6577 230.453 12.0623 231.084 13.811V8.307H235.986V32H231.084V26.496C230.453 28.2447 229.378 29.6493 227.859 30.71C226.339 31.7707 224.505 32.301 222.355 32.301C220.291 32.301 218.442 31.8137 216.808 30.839C215.202 29.8643 213.941 28.4597 213.024 26.625C212.106 24.7903 211.648 22.626 211.648 20.132C211.648 17.6667 212.106 15.5167 213.024 13.682C213.941 11.8473 215.202 10.4427 216.808 9.468C218.442 8.49333 220.291 8.006 222.355 8.006ZM223.86 12.306C221.681 12.306 219.932 13.0083 218.614 14.413C217.324 15.789 216.679 17.6953 216.679 20.132C216.679 22.5687 217.324 24.4893 218.614 25.894C219.932 27.27 221.681 27.958 223.86 27.958C225.236 27.958 226.468 27.6427 227.558 27.012C228.647 26.3527 229.507 25.4353 230.138 24.26C230.768 23.0847 231.084 21.7087 231.084 20.132C231.084 18.584 230.768 17.2223 230.138 16.047C229.507 14.843 228.647 13.9257 227.558 13.295C226.468 12.6357 225.236 12.306 223.86 12.306ZM255.112 7.92C257.864 7.92 260.072 8.80867 261.734 10.586C263.397 12.3633 264.228 14.9003 264.228 18.197V32H259.326V18.713C259.326 16.5917 258.782 14.9577 257.692 13.811C256.603 12.6357 255.112 12.048 253.22 12.048C251.271 12.048 249.709 12.6787 248.533 13.94C247.358 15.1727 246.77 16.993 246.77 19.401V32H241.868V8.307H246.77V13.51C247.401 11.7327 248.462 10.3567 249.952 9.382C251.443 8.40733 253.163 7.92 255.112 7.92ZM280.496 8.006C283.563 8.006 286.1 8.823 288.107 10.457C290.114 12.0623 291.361 14.2553 291.848 17.036H286.645C286.358 15.5453 285.656 14.3843 284.538 13.553C283.449 12.693 282.073 12.263 280.41 12.263C278.518 12.263 276.941 12.9367 275.68 14.284C274.419 15.6027 273.788 17.552 273.788 20.132C273.788 22.712 274.419 24.6757 275.68 26.023C276.941 27.3703 278.518 28.044 280.41 28.044C282.073 28.044 283.449 27.614 284.538 26.754C285.656 25.894 286.358 24.7187 286.645 23.228H291.848C291.361 26.0087 290.114 28.216 288.107 29.85C286.1 31.484 283.563 32.301 280.496 32.301C278.203 32.301 276.167 31.8137 274.39 30.839C272.641 29.8643 271.265 28.4597 270.262 26.625C269.259 24.7903 268.757 22.626 268.757 20.132C268.757 17.6667 269.259 15.5167 270.262 13.682C271.265 11.8473 272.641 10.4427 274.39 9.468C276.167 8.49333 278.203 8.006 280.496 8.006ZM318.6 19.014C318.6 19.8167 318.543 20.519 318.428 21.121H300.196C300.282 23.5577 300.956 25.3637 302.217 26.539C303.479 27.7143 305.041 28.302 306.904 28.302C308.538 28.302 309.914 27.8863 311.032 27.055C312.179 26.2237 312.881 25.12 313.139 23.744H318.385C318.07 25.4067 317.411 26.883 316.407 28.173C315.404 29.463 314.1 30.4807 312.494 31.226C310.889 31.9427 309.097 32.301 307.119 32.301C304.826 32.301 302.791 31.8137 301.013 30.839C299.265 29.8643 297.889 28.4597 296.885 26.625C295.882 24.7903 295.38 22.626 295.38 20.132C295.38 17.6667 295.882 15.5167 296.885 13.682C297.889 11.8473 299.265 10.4427 301.013 9.468C302.791 8.49333 304.826 8.006 307.119 8.006C309.441 8.006 311.462 8.49333 313.182 9.468C314.931 10.414 316.264 11.7327 317.181 13.424C318.127 15.0867 318.6 16.95 318.6 19.014ZM313.655 18.885C313.713 17.337 313.44 16.047 312.838 15.015C312.265 13.9543 311.462 13.1803 310.43 12.693C309.427 12.177 308.323 11.919 307.119 11.919C305.199 11.919 303.593 12.5067 302.303 13.682C301.013 14.8573 300.311 16.5917 300.196 18.885H313.655ZM328.235 12.951C329.038 11.403 330.185 10.1847 331.675 9.296C333.166 8.37867 334.886 7.92 336.835 7.92V13.252H335.373C333.223 13.252 331.489 13.7823 330.17 14.843C328.88 15.875 328.235 17.595 328.235 20.003V32H323.333V8.307H328.235V12.951ZM21.919 69.916C21.919 71.4067 21.5607 72.797 20.844 74.087C20.1273 75.3483 19.038 76.366 17.576 77.14C16.114 77.914 14.3223 78.301 12.201 78.301C10.137 78.301 8.288 77.9427 6.654 77.226C5.02 76.4807 3.71567 75.4487 2.741 74.13C1.76633 72.8113 1.20733 71.292 1.064 69.572H6.31C6.45333 70.8907 7.01233 72.023 7.987 72.969C8.99033 73.915 10.3233 74.388 11.986 74.388C13.4767 74.388 14.6233 73.9867 15.426 73.184C16.2573 72.3813 16.673 71.3493 16.673 70.088C16.673 68.9987 16.372 68.11 15.77 67.422C15.168 66.7053 14.4227 66.1463 13.534 65.745C12.6453 65.3437 11.427 64.885 9.879 64.369C7.987 63.767 6.439 63.165 5.235 62.563C4.05967 61.961 3.05633 61.0867 2.225 59.94C1.39367 58.7933 0.978 57.2883 0.978 55.425C0.978 53.791 1.37933 52.3577 2.182 51.125C2.98467 49.8923 4.13133 48.9463 5.622 48.287C7.11267 47.599 8.83267 47.255 10.782 47.255C13.878 47.255 16.329 48.0003 18.135 49.491C19.9697 50.9817 21.016 52.931 21.274 55.339H15.985C15.7843 54.1923 15.2397 53.2177 14.351 52.415C13.491 51.5837 12.3013 51.168 10.782 51.168C9.406 51.168 8.30233 51.5263 7.471 52.243C6.63967 52.931 6.224 53.9343 6.224 55.253C6.224 56.285 6.51067 57.145 7.084 57.833C7.65733 58.4923 8.374 59.0227 9.234 59.424C10.1227 59.7967 11.3267 60.241 12.846 60.757C14.7667 61.359 16.329 61.9753 17.533 62.606C18.7657 63.208 19.7977 64.0967 20.629 65.272C21.489 66.4473 21.919 67.9953 21.919 69.916ZM48.6704 54.307V78H43.7254V72.84C43.1234 74.5887 42.077 75.9503 40.5864 76.925C39.0957 77.871 37.3614 78.344 35.3834 78.344C32.6314 78.344 30.424 77.4553 28.7614 75.678C27.0987 73.9007 26.2674 71.3637 26.2674 68.067V54.307H31.1694V67.551C31.1694 69.701 31.714 71.3637 32.8034 72.539C33.8927 73.6857 35.3834 74.259 37.2754 74.259C39.2247 74.259 40.787 73.6283 41.9624 72.367C43.1377 71.1057 43.7254 69.271 43.7254 66.863V54.307H48.6704ZM68.1292 54.006C70.1932 54.006 72.0279 54.4933 73.6332 55.468C75.2672 56.4427 76.5429 57.8473 77.4602 59.682C78.3776 61.5167 78.8362 63.6667 78.8362 66.132C78.8362 68.626 78.3776 70.7903 77.4602 72.625C76.5429 74.4597 75.2672 75.8643 73.6332 76.839C72.0279 77.8137 70.1932 78.301 68.1292 78.301C65.9792 78.301 64.1446 77.7707 62.6252 76.71C61.1059 75.6493 60.0452 74.2447 59.4432 72.496V89.266H54.5412V54.307H59.4432V59.811C60.0452 58.0623 61.1059 56.6577 62.6252 55.597C64.1446 54.5363 65.9792 54.006 68.1292 54.006ZM66.6242 58.306C65.2482 58.306 64.0156 58.6357 62.9262 59.295C61.8369 59.9257 60.9769 60.843 60.3462 62.047C59.7156 63.2223 59.4002 64.584 59.4002 66.132C59.4002 67.7087 59.7156 69.0847 60.3462 70.26C60.9769 71.4353 61.8369 72.3527 62.9262 73.012C64.0156 73.6427 65.2482 73.958 66.6242 73.958C68.8029 73.958 70.5516 73.27 71.8702 71.894C73.1889 70.4893 73.8482 68.5687 73.8482 66.132C73.8482 63.724 73.1889 61.8177 71.8702 60.413C70.5516 59.0083 68.8029 58.306 66.6242 58.306ZM97.1458 54.006C99.2098 54.006 101.044 54.4933 102.65 55.468C104.284 56.4427 105.559 57.8473 106.477 59.682C107.394 61.5167 107.853 63.6667 107.853 66.132C107.853 68.626 107.394 70.7903 106.477 72.625C105.559 74.4597 104.284 75.8643 102.65 76.839C101.044 77.8137 99.2098 78.301 97.1458 78.301C94.9958 78.301 93.1612 77.7707 91.6418 76.71C90.1225 75.6493 89.0618 74.2447 88.4598 72.496V89.266H83.5578V54.307H88.4598V59.811C89.0618 58.0623 90.1225 56.6577 91.6418 55.597C93.1612 54.5363 94.9958 54.006 97.1458 54.006ZM95.6408 58.306C94.2648 58.306 93.0322 58.6357 91.9428 59.295C90.8535 59.9257 89.9935 60.843 89.3628 62.047C88.7322 63.2223 88.4168 64.584 88.4168 66.132C88.4168 67.7087 88.7322 69.0847 89.3628 70.26C89.9935 71.4353 90.8535 72.3527 91.9428 73.012C93.0322 73.6427 94.2648 73.958 95.6408 73.958C97.8195 73.958 99.5682 73.27 100.887 71.894C102.205 70.4893 102.865 68.5687 102.865 66.132C102.865 63.724 102.205 61.8177 100.887 60.413C99.5682 59.0083 97.8195 58.306 95.6408 58.306ZM123.41 54.006C125.704 54.006 127.768 54.4933 129.602 55.468C131.437 56.4427 132.87 57.8473 133.902 59.682C134.934 61.5167 135.45 63.6667 135.45 66.132C135.45 68.626 134.934 70.7903 133.902 72.625C132.87 74.4597 131.437 75.8643 129.602 76.839C127.768 77.8137 125.704 78.301 123.41 78.301C121.117 78.301 119.053 77.8137 117.218 76.839C115.412 75.8643 113.979 74.4597 112.918 72.625C111.886 70.7617 111.37 68.5973 111.37 66.132C111.37 63.6667 111.886 61.5167 112.918 59.682C113.979 57.8473 115.412 56.4427 117.218 55.468C119.053 54.4933 121.117 54.006 123.41 54.006ZM123.41 58.263C122.149 58.263 120.988 58.5497 119.927 59.123C118.867 59.6963 118.007 60.585 117.347 61.789C116.717 62.9643 116.401 64.412 116.401 66.132C116.401 67.8807 116.717 69.3427 117.347 70.518C118.007 71.6933 118.867 72.5677 119.927 73.141C120.988 73.7143 122.149 74.001 123.41 74.001C124.672 74.001 125.833 73.7143 126.893 73.141C127.954 72.5677 128.8 71.6933 129.43 70.518C130.09 69.3427 130.419 67.8807 130.419 66.132C130.419 64.412 130.09 62.9643 129.43 61.789C128.8 60.585 127.954 59.6963 126.893 59.123C125.833 58.5497 124.672 58.263 123.41 58.263ZM145.065 58.951C145.868 57.403 147.015 56.1847 148.505 55.296C149.996 54.3787 151.716 53.92 153.665 53.92V59.252H152.203C150.053 59.252 148.319 59.7823 147 60.843C145.71 61.875 145.065 63.595 145.065 66.003V78H140.163V54.307H145.065V58.951ZM169.249 73.743V78H166.239C163.716 78 161.796 77.398 160.477 76.194C159.187 74.9613 158.542 72.926 158.542 70.088V58.478H155.145V54.307H158.542V48.416H163.487V54.307H169.206V58.478H163.487V70.174C163.487 71.5213 163.731 72.453 164.218 72.969C164.734 73.485 165.623 73.743 166.884 73.743H169.249ZM197.464 47.341C201.191 47.341 204.287 48.287 206.752 50.179C209.217 52.071 210.88 54.6367 211.74 57.876H206.537C205.82 56.0413 204.674 54.5937 203.097 53.533C201.549 52.4437 199.643 51.899 197.378 51.899C195.572 51.899 193.952 52.3433 192.519 53.232C191.114 54.1207 189.996 55.3963 189.165 57.059C188.362 58.693 187.961 60.6137 187.961 62.821C187.961 64.9997 188.362 66.9203 189.165 68.583C189.996 70.217 191.114 71.4783 192.519 72.367C193.952 73.2557 195.572 73.7 197.378 73.7C199.643 73.7 201.549 73.1697 203.097 72.109C204.674 71.0197 205.82 69.572 206.537 67.766H211.74C210.88 71.0053 209.217 73.571 206.752 75.463C204.287 77.3263 201.191 78.258 197.464 78.258C194.597 78.258 192.06 77.613 189.853 76.323C187.646 75.0043 185.94 73.184 184.736 70.862C183.532 68.5113 182.93 65.831 182.93 62.821C182.93 59.811 183.532 57.145 184.736 54.823C185.94 52.4723 187.646 50.6377 189.853 49.319C192.06 48.0003 194.597 47.341 197.464 47.341ZM238.647 65.014C238.647 65.8167 238.59 66.519 238.475 67.121H220.243C220.329 69.5577 221.003 71.3637 222.264 72.539C223.525 73.7143 225.088 74.302 226.951 74.302C228.585 74.302 229.961 73.8863 231.079 73.055C232.226 72.2237 232.928 71.12 233.186 69.744H238.432C238.117 71.4067 237.457 72.883 236.454 74.173C235.451 75.463 234.146 76.4807 232.541 77.226C230.936 77.9427 229.144 78.301 227.166 78.301C224.873 78.301 222.837 77.8137 221.06 76.839C219.311 75.8643 217.935 74.4597 216.932 72.625C215.929 70.7903 215.427 68.626 215.427 66.132C215.427 63.6667 215.929 61.5167 216.932 59.682C217.935 57.8473 219.311 56.4427 221.06 55.468C222.837 54.4933 224.873 54.006 227.166 54.006C229.488 54.006 231.509 54.4933 233.229 55.468C234.978 56.414 236.311 57.7327 237.228 59.424C238.174 61.0867 238.647 62.95 238.647 65.014ZM233.702 64.885C233.759 63.337 233.487 62.047 232.885 61.015C232.312 59.9543 231.509 59.1803 230.477 58.693C229.474 58.177 228.37 57.919 227.166 57.919C225.245 57.919 223.64 58.5067 222.35 59.682C221.06 60.8573 220.358 62.5917 220.243 64.885H233.702ZM256.624 53.92C259.376 53.92 261.583 54.8087 263.246 56.586C264.909 58.3633 265.74 60.9003 265.74 64.197V78H260.838V64.713C260.838 62.5917 260.293 60.9577 259.204 59.811C258.115 58.6357 256.624 58.048 254.732 58.048C252.783 58.048 251.22 58.6787 250.045 59.94C248.87 61.1727 248.282 62.993 248.282 65.401V78H243.38V54.307H248.282V59.51C248.913 57.7327 249.973 56.3567 251.464 55.382C252.955 54.4073 254.675 53.92 256.624 53.92ZM283.384 73.743V78H280.374C277.851 78 275.931 77.398 274.612 76.194C273.322 74.9613 272.677 72.926 272.677 70.088V58.478H269.28V54.307H272.677V48.416H277.622V54.307H283.341V58.478H277.622V70.174C277.622 71.5213 277.866 72.453 278.353 72.969C278.869 73.485 279.758 73.743 281.019 73.743H283.384ZM292.878 58.951C293.68 57.403 294.827 56.1847 296.318 55.296C297.808 54.3787 299.528 53.92 301.478 53.92V59.252H300.016C297.866 59.252 296.131 59.7823 294.813 60.843C293.523 61.875 292.878 63.595 292.878 66.003V78H287.976V54.307H292.878V58.951ZM327.167 65.014C327.167 65.8167 327.109 66.519 326.995 67.121H308.763C308.849 69.5577 309.522 71.3637 310.784 72.539C312.045 73.7143 313.607 74.302 315.471 74.302C317.105 74.302 318.481 73.8863 319.599 73.055C320.745 72.2237 321.448 71.12 321.706 69.744H326.952C326.636 71.4067 325.977 72.883 324.974 74.173C323.97 75.463 322.666 76.4807 321.061 77.226C319.455 77.9427 317.664 78.301 315.686 78.301C313.392 78.301 311.357 77.8137 309.58 76.839C307.831 75.8643 306.455 74.4597 305.452 72.625C304.448 70.7903 303.947 68.626 303.947 66.132C303.947 63.6667 304.448 61.5167 305.452 59.682C306.455 57.8473 307.831 56.4427 309.58 55.468C311.357 54.4933 313.392 54.006 315.686 54.006C318.008 54.006 320.029 54.4933 321.749 55.468C323.497 56.414 324.83 57.7327 325.748 59.424C326.694 61.0867 327.167 62.95 327.167 65.014ZM322.222 64.885C322.279 63.337 322.007 62.047 321.405 61.015C320.831 59.9543 320.029 59.1803 318.997 58.693C317.993 58.177 316.89 57.919 315.686 57.919C313.765 57.919 312.16 58.5067 310.87 59.682C309.58 60.8573 308.877 62.5917 308.763 64.885H322.222Z" fill="white"/>
</svg>
