<svg width="238" height="65" viewBox="0 0 238 65" fill="none" xmlns="http://www.w3.org/2000/svg">
<path d="M4.86 19.76H11.94L11.4 23H0.06L3.78 1.82H8.01L4.86 19.76ZM19.7074 6.38L22.2574 17.66L28.4374 6.38H33.1174L18.5674 30.92H13.8874L19.1374 22.52L14.9974 6.38H19.7074ZM45.165 6.14C46.805 6.14 48.085 6.61 49.005 7.55C49.925 8.47 50.385 9.79 50.385 11.51C50.385 12.17 50.335 12.78 50.235 13.34L48.525 23H44.295L45.945 13.82C46.005 13.46 46.035 13.11 46.035 12.77C46.035 11.77 45.755 11 45.195 10.46C44.635 9.92 43.855 9.65 42.855 9.65C41.655 9.65 40.625 10.04 39.765 10.82C38.905 11.6 38.355 12.72 38.115 14.18V14.06L36.555 23H32.295L35.235 6.38H39.465L38.895 9.71C39.535 8.59 40.405 7.72 41.505 7.1C42.625 6.46 43.845 6.14 45.165 6.14ZM72.4669 0.8L68.5369 23H64.3069L64.9369 19.52C64.3169 20.64 63.4469 21.54 62.3269 22.22C61.2069 22.88 59.9469 23.21 58.5469 23.21C56.7269 23.21 55.2569 22.62 54.1369 21.44C53.0369 20.24 52.4869 18.6 52.4869 16.52C52.4869 15.96 52.5569 15.23 52.6969 14.33C52.9969 12.67 53.5669 11.22 54.4069 9.98C55.2469 8.74 56.2769 7.8 57.4969 7.16C58.7169 6.5 60.0169 6.17 61.3969 6.17C62.8369 6.17 64.0069 6.5 64.9069 7.16C65.8269 7.82 66.3969 8.71 66.6169 9.83L68.2369 0.8H72.4669ZM62.2369 9.86C60.9169 9.86 59.7769 10.29 58.8169 11.15C57.8569 12.01 57.2469 13.19 56.9869 14.69C56.9269 15.11 56.8969 15.49 56.8969 15.83C56.8969 16.99 57.2169 17.89 57.8569 18.53C58.4969 19.17 59.3869 19.49 60.5269 19.49C61.8069 19.49 62.9369 19.06 63.9169 18.2C64.9169 17.32 65.5469 16.15 65.8069 14.69C65.8669 14.29 65.8969 13.93 65.8969 13.61C65.8969 12.43 65.5669 11.51 64.9069 10.85C64.2469 10.19 63.3569 9.86 62.2369 9.86ZM81.8217 6.17C83.2817 6.17 84.4617 6.51 85.3617 7.19C86.2817 7.85 86.8517 8.73 87.0717 9.83L87.7017 6.38H91.9017L88.9617 23H84.7617L85.3917 19.52C84.7717 20.64 83.9017 21.54 82.7817 22.22C81.6617 22.88 80.4017 23.21 79.0017 23.21C77.1217 23.21 75.6417 22.63 74.5617 21.47C73.4817 20.31 72.9417 18.7 72.9417 16.64C72.9417 15.86 73.0117 15.09 73.1517 14.33C73.4517 12.67 74.0217 11.22 74.8617 9.98C75.7017 8.74 76.7217 7.8 77.9217 7.16C79.1417 6.5 80.4417 6.17 81.8217 6.17ZM82.6917 9.86C81.3717 9.86 80.2317 10.29 79.2717 11.15C78.3117 12.01 77.7017 13.19 77.4417 14.69C77.3617 15.25 77.3217 15.64 77.3217 15.86C77.3217 17 77.6417 17.89 78.2817 18.53C78.9417 19.17 79.8417 19.49 80.9817 19.49C82.2617 19.49 83.3917 19.06 84.3717 18.2C85.3517 17.32 85.9717 16.15 86.2317 14.69C86.3117 14.17 86.3517 13.79 86.3517 13.55C86.3517 12.41 86.0117 11.51 85.3317 10.85C84.6717 10.19 83.7917 9.86 82.6917 9.86ZM100.954 0.8L97.0538 23H92.8238L96.7238 0.8H100.954ZM111.173 6.17C113.333 6.17 115.023 6.74 116.243 7.88C117.483 9.02 118.103 10.54 118.103 12.44C118.103 12.88 118.053 13.42 117.952 14.06C117.833 14.66 117.703 15.14 117.563 15.5H105.353C105.313 15.72 105.293 16.04 105.293 16.46C105.293 17.62 105.593 18.47 106.193 19.01C106.793 19.55 107.583 19.82 108.563 19.82C109.543 19.82 110.403 19.58 111.143 19.1C111.883 18.6 112.413 17.95 112.733 17.15H117.203C116.543 18.95 115.403 20.41 113.783 21.53C112.183 22.65 110.313 23.21 108.173 23.21C106.053 23.21 104.363 22.62 103.103 21.44C101.863 20.26 101.243 18.62 101.243 16.52C101.243 15.88 101.303 15.2 101.423 14.48C101.723 12.78 102.333 11.31 103.253 10.07C104.193 8.81 105.343 7.85 106.703 7.19C108.083 6.51 109.573 6.17 111.173 6.17ZM113.753 13.64C113.833 13.26 113.873 12.88 113.873 12.5C113.873 11.5 113.563 10.75 112.943 10.25C112.323 9.75 111.543 9.5 110.603 9.5C109.443 9.5 108.413 9.85 107.513 10.55C106.613 11.25 106.003 12.28 105.683 13.64H113.753ZM136.969 1.61C139.609 1.61 141.799 2.29 143.539 3.65C145.279 5.01 146.429 6.86 146.989 9.2H142.549C142.089 8.06 141.369 7.16 140.389 6.5C139.429 5.84 138.269 5.51 136.909 5.51C135.789 5.51 134.779 5.79 133.879 6.35C132.979 6.91 132.279 7.71 131.779 8.75C131.279 9.79 131.029 11.01 131.029 12.41C131.029 13.79 131.279 15 131.779 16.04C132.279 17.08 132.979 17.88 133.879 18.44C134.779 19 135.789 19.28 136.909 19.28C138.269 19.28 139.429 18.95 140.389 18.29C141.369 17.63 142.089 16.73 142.549 15.59H146.989C146.429 17.93 145.279 19.78 143.539 21.14C141.799 22.5 139.609 23.18 136.969 23.18C134.949 23.18 133.159 22.73 131.599 21.83C130.059 20.91 128.859 19.63 127.999 17.99C127.159 16.35 126.739 14.49 126.739 12.41C126.739 10.31 127.159 8.44 127.999 6.8C128.859 5.16 130.059 3.89 131.599 2.99C133.139 2.07 134.929 1.61 136.969 1.61ZM156.672 6.17C158.072 6.17 159.272 6.5 160.272 7.16C161.272 7.82 161.982 8.71 162.402 9.83V6.38H166.602V23H162.402V19.52C161.982 20.64 161.272 21.54 160.272 22.22C159.272 22.88 158.072 23.21 156.672 23.21C155.272 23.21 154.012 22.87 152.892 22.19C151.772 21.51 150.892 20.53 150.252 19.25C149.632 17.95 149.322 16.43 149.322 14.69C149.322 12.95 149.632 11.44 150.252 10.16C150.892 8.86 151.772 7.87 152.892 7.19C154.012 6.51 155.272 6.17 156.672 6.17ZM157.992 9.86C156.672 9.86 155.612 10.29 154.812 11.15C154.012 12.01 153.612 13.19 153.612 14.69C153.612 16.19 154.012 17.37 154.812 18.23C155.612 19.07 156.672 19.49 157.992 19.49C159.272 19.49 160.322 19.06 161.142 18.2C161.982 17.32 162.402 16.15 162.402 14.69C162.402 13.21 161.982 12.04 161.142 11.18C160.322 10.3 159.272 9.86 157.992 9.86ZM180.336 6.14C182.256 6.14 183.786 6.77 184.926 8.03C186.066 9.29 186.636 11.06 186.636 13.34V23H182.436V13.82C182.436 12.5 182.096 11.48 181.416 10.76C180.736 10.02 179.806 9.65 178.626 9.65C177.426 9.65 176.466 10.04 175.746 10.82C175.026 11.6 174.666 12.72 174.666 14.18V23H170.436V6.38H174.666V9.71C175.106 8.59 175.826 7.72 176.826 7.1C177.846 6.46 179.016 6.14 180.336 6.14ZM197.828 6.17C199.968 6.17 201.748 6.75 203.168 7.91C204.608 9.07 205.508 10.65 205.868 12.65H201.398C201.218 11.77 200.808 11.08 200.168 10.58C199.528 10.06 198.718 9.8 197.738 9.8C196.618 9.8 195.678 10.22 194.918 11.06C194.178 11.88 193.808 13.09 193.808 14.69C193.808 16.29 194.178 17.51 194.918 18.35C195.678 19.17 196.618 19.58 197.738 19.58C198.718 19.58 199.528 19.33 200.168 18.83C200.808 18.31 201.218 17.61 201.398 16.73H205.868C205.508 18.73 204.608 20.31 203.168 21.47C201.748 22.63 199.968 23.21 197.828 23.21C196.208 23.21 194.768 22.87 193.508 22.19C192.248 21.49 191.268 20.5 190.568 19.22C189.868 17.94 189.518 16.43 189.518 14.69C189.518 12.95 189.868 11.44 190.568 10.16C191.268 8.86 192.248 7.87 193.508 7.19C194.768 6.51 196.208 6.17 197.828 6.17ZM224.503 14.06C224.503 14.48 224.453 14.96 224.353 15.5H212.173C212.233 16.98 212.633 18.07 213.373 18.77C214.113 19.47 215.033 19.82 216.133 19.82C217.113 19.82 217.923 19.58 218.563 19.1C219.223 18.62 219.643 17.97 219.823 17.15H224.293C224.073 18.31 223.603 19.35 222.883 20.27C222.163 21.19 221.233 21.91 220.093 22.43C218.973 22.95 217.723 23.21 216.343 23.21C214.723 23.21 213.283 22.87 212.023 22.19C210.763 21.49 209.783 20.5 209.083 19.22C208.383 17.94 208.033 16.43 208.033 14.69C208.033 12.95 208.383 11.44 209.083 10.16C209.783 8.86 210.763 7.87 212.023 7.19C213.283 6.51 214.723 6.17 216.343 6.17C217.983 6.17 219.413 6.51 220.633 7.19C221.873 7.87 222.823 8.81 223.483 10.01C224.163 11.19 224.503 12.54 224.503 14.06ZM220.243 13.64C220.303 12.28 219.943 11.25 219.163 10.55C218.403 9.85 217.463 9.5 216.343 9.5C215.203 9.5 214.243 9.85 213.463 10.55C212.683 11.25 212.253 12.28 212.173 13.64H220.243ZM231.736 9.56C232.356 8.5 233.176 7.67 234.196 7.07C235.216 6.45 236.356 6.14 237.616 6.14V10.67H236.386C233.286 10.67 231.736 12.11 231.736 14.99V23H227.506V6.38H231.736V9.56ZM16.47 51.21C16.47 52.29 16.2 53.29 15.66 54.21C15.12 55.11 14.32 55.84 13.26 56.4C12.2 56.94 10.91 57.21 9.39 57.21C7.89 57.21 6.55 56.96 5.37 56.46C4.19 55.94 3.24 55.2 2.52 54.24C1.82 53.28 1.42 52.16 1.32 50.88H5.82C5.92 51.74 6.26 52.46 6.84 53.04C7.44 53.6 8.23 53.88 9.21 53.88C10.09 53.88 10.76 53.65 11.22 53.19C11.7 52.71 11.94 52.1 11.94 51.36C11.94 50.7 11.75 50.16 11.37 49.74C10.99 49.3 10.51 48.95 9.93 48.69C9.35 48.43 8.55 48.13 7.53 47.79C6.21 47.35 5.13 46.92 4.29 46.5C3.45 46.06 2.73 45.43 2.13 44.61C1.55 43.79 1.26 42.72 1.26 41.4C1.26 39.58 1.91 38.15 3.21 37.11C4.53 36.05 6.27 35.52 8.43 35.52C10.67 35.52 12.45 36.06 13.77 37.14C15.11 38.22 15.87 39.66 16.05 41.46H11.49C11.37 40.7 11.05 40.08 10.53 39.6C10.01 39.1 9.3 38.85 8.4 38.85C7.62 38.85 6.99 39.06 6.51 39.48C6.03 39.88 5.79 40.47 5.79 41.25C5.79 41.87 5.97 42.39 6.33 42.81C6.71 43.21 7.18 43.54 7.74 43.8C8.32 44.06 9.1 44.35 10.08 44.67C11.44 45.15 12.54 45.6 13.38 46.02C14.24 46.44 14.97 47.07 15.57 47.91C16.17 48.75 16.47 49.85 16.47 51.21ZM35.486 40.38V57H31.256V53.64C30.816 54.76 30.086 55.64 29.066 56.28C28.066 56.9 26.906 57.21 25.586 57.21C23.666 57.21 22.136 56.58 20.996 55.32C19.856 54.06 19.286 52.3 19.286 50.04V40.38H23.486V49.56C23.486 50.88 23.826 51.91 24.506 52.65C25.186 53.37 26.106 53.73 27.266 53.73C28.486 53.73 29.456 53.34 30.176 52.56C30.896 51.78 31.256 50.66 31.256 49.2V40.38H35.486ZM49.2621 40.17C50.6621 40.17 51.9221 40.51 53.0421 41.19C54.1621 41.87 55.0321 42.86 55.6521 44.16C56.2921 45.44 56.6121 46.95 56.6121 48.69C56.6121 50.43 56.2921 51.95 55.6521 53.25C55.0321 54.53 54.1621 55.51 53.0421 56.19C51.9221 56.87 50.6621 57.21 49.2621 57.21C47.8621 57.21 46.6621 56.88 45.6621 56.22C44.6821 55.54 43.9821 54.64 43.5621 53.52V64.92H39.3321V40.38H43.5621V43.83C43.9821 42.71 44.6821 41.82 45.6621 41.16C46.6621 40.5 47.8621 40.17 49.2621 40.17ZM47.9421 43.86C46.6621 43.86 45.6021 44.3 44.7621 45.18C43.9421 46.04 43.5321 47.21 43.5321 48.69C43.5321 50.15 43.9421 51.32 44.7621 52.2C45.6021 53.06 46.6621 53.49 47.9421 53.49C49.2621 53.49 50.3221 53.07 51.1221 52.23C51.9221 51.37 52.3221 50.19 52.3221 48.69C52.3221 47.19 51.9221 46.01 51.1221 45.15C50.3221 44.29 49.2621 43.86 47.9421 43.86ZM69.5355 40.17C70.9355 40.17 72.1955 40.51 73.3155 41.19C74.4355 41.87 75.3055 42.86 75.9255 44.16C76.5655 45.44 76.8855 46.95 76.8855 48.69C76.8855 50.43 76.5655 51.95 75.9255 53.25C75.3055 54.53 74.4355 55.51 73.3155 56.19C72.1955 56.87 70.9355 57.21 69.5355 57.21C68.1355 57.21 66.9355 56.88 65.9355 56.22C64.9555 55.54 64.2555 54.64 63.8355 53.52V64.92H59.6055V40.38H63.8355V43.83C64.2555 42.71 64.9555 41.82 65.9355 41.16C66.9355 40.5 68.1355 40.17 69.5355 40.17ZM68.2155 43.86C66.9355 43.86 65.8755 44.3 65.0355 45.18C64.2155 46.04 63.8055 47.21 63.8055 48.69C63.8055 50.15 64.2155 51.32 65.0355 52.2C65.8755 53.06 66.9355 53.49 68.2155 53.49C69.5355 53.49 70.5955 53.07 71.3955 52.23C72.1955 51.37 72.5955 50.19 72.5955 48.69C72.5955 47.19 72.1955 46.01 71.3955 45.15C70.5955 44.29 69.5355 43.86 68.2155 43.86ZM87.559 40.17C89.179 40.17 90.629 40.51 91.909 41.19C93.209 41.87 94.229 42.86 94.969 44.16C95.709 45.44 96.079 46.95 96.079 48.69C96.079 50.43 95.709 51.94 94.969 53.22C94.229 54.5 93.209 55.49 91.909 56.19C90.629 56.87 89.179 57.21 87.559 57.21C85.939 57.21 84.479 56.87 83.179 56.19C81.899 55.49 80.889 54.5 80.149 53.22C79.409 51.94 79.039 50.43 79.039 48.69C79.039 46.95 79.409 45.44 80.149 44.16C80.889 42.86 81.899 41.87 83.179 41.19C84.479 40.51 85.939 40.17 87.559 40.17ZM87.559 43.83C86.379 43.83 85.379 44.25 84.559 45.09C83.739 45.91 83.329 47.11 83.329 48.69C83.329 50.27 83.739 51.48 84.559 52.32C85.379 53.14 86.379 53.55 87.559 53.55C88.739 53.55 89.739 53.14 90.559 52.32C91.379 51.48 91.789 50.27 91.789 48.69C91.789 47.11 91.379 45.91 90.559 45.09C89.739 44.25 88.739 43.83 87.559 43.83ZM103.298 43.56C103.918 42.5 104.738 41.67 105.758 41.07C106.778 40.45 107.918 40.14 109.178 40.14V44.67H107.948C104.848 44.67 103.298 46.11 103.298 48.99V57H99.0684V40.38H103.298V43.56ZM120.4 53.37V57H118.18C116.32 57 114.89 56.55 113.89 55.65C112.91 54.75 112.42 53.25 112.42 51.15V43.95H110.11V40.38H112.42V36.27H116.65V40.38H120.37V43.95H116.65V51.21C116.65 52.01 116.81 52.57 117.13 52.89C117.45 53.21 117.99 53.37 118.75 53.37H120.4ZM139.547 35.61C142.187 35.61 144.377 36.29 146.117 37.65C147.857 39.01 149.007 40.86 149.567 43.2H145.127C144.667 42.06 143.947 41.16 142.967 40.5C142.007 39.84 140.847 39.51 139.487 39.51C138.367 39.51 137.357 39.79 136.457 40.35C135.557 40.91 134.857 41.71 134.357 42.75C133.857 43.79 133.607 45.01 133.607 46.41C133.607 47.79 133.857 49 134.357 50.04C134.857 51.08 135.557 51.88 136.457 52.44C137.357 53 138.367 53.28 139.487 53.28C140.847 53.28 142.007 52.95 142.967 52.29C143.947 51.63 144.667 50.73 145.127 49.59H149.567C149.007 51.93 147.857 53.78 146.117 55.14C144.377 56.5 142.187 57.18 139.547 57.18C137.527 57.18 135.737 56.73 134.177 55.83C132.637 54.91 131.437 53.63 130.577 51.99C129.737 50.35 129.317 48.49 129.317 46.41C129.317 44.31 129.737 42.44 130.577 40.8C131.437 39.16 132.637 37.89 134.177 36.99C135.717 36.07 137.507 35.61 139.547 35.61ZM168.37 48.06C168.37 48.48 168.32 48.96 168.22 49.5H156.04C156.1 50.98 156.5 52.07 157.24 52.77C157.98 53.47 158.9 53.82 160 53.82C160.98 53.82 161.79 53.58 162.43 53.1C163.09 52.62 163.51 51.97 163.69 51.15H168.16C167.94 52.31 167.47 53.35 166.75 54.27C166.03 55.19 165.1 55.91 163.96 56.43C162.84 56.95 161.59 57.21 160.21 57.21C158.59 57.21 157.15 56.87 155.89 56.19C154.63 55.49 153.65 54.5 152.95 53.22C152.25 51.94 151.9 50.43 151.9 48.69C151.9 46.95 152.25 45.44 152.95 44.16C153.65 42.86 154.63 41.87 155.89 41.19C157.15 40.51 158.59 40.17 160.21 40.17C161.85 40.17 163.28 40.51 164.5 41.19C165.74 41.87 166.69 42.81 167.35 44.01C168.03 45.19 168.37 46.54 168.37 48.06ZM164.11 47.64C164.17 46.28 163.81 45.25 163.03 44.55C162.27 43.85 161.33 43.5 160.21 43.5C159.07 43.5 158.11 43.85 157.33 44.55C156.55 45.25 156.12 46.28 156.04 47.64H164.11ZM181.273 40.14C183.193 40.14 184.723 40.77 185.863 42.03C187.003 43.29 187.573 45.06 187.573 47.34V57H183.373V47.82C183.373 46.5 183.033 45.48 182.353 44.76C181.673 44.02 180.743 43.65 179.563 43.65C178.363 43.65 177.403 44.04 176.683 44.82C175.963 45.6 175.603 46.72 175.603 48.18V57H171.373V40.38H175.603V43.71C176.043 42.59 176.763 41.72 177.763 41.1C178.783 40.46 179.953 40.14 181.273 40.14ZM200.175 53.37V57H197.955C196.095 57 194.665 56.55 193.665 55.65C192.685 54.75 192.195 53.25 192.195 51.15V43.95H189.885V40.38H192.195V36.27H196.425V40.38H200.145V43.95H196.425V51.21C196.425 52.01 196.585 52.57 196.905 52.89C197.225 53.21 197.765 53.37 198.525 53.37H200.175ZM207.449 43.56C208.069 42.5 208.889 41.67 209.909 41.07C210.929 40.45 212.069 40.14 213.329 40.14V44.67H212.099C208.999 44.67 207.449 46.11 207.449 48.99V57H203.219V40.38H207.449V43.56ZM231.3 48.06C231.3 48.48 231.25 48.96 231.15 49.5H218.97C219.03 50.98 219.43 52.07 220.17 52.77C220.91 53.47 221.83 53.82 222.93 53.82C223.91 53.82 224.72 53.58 225.36 53.1C226.02 52.62 226.44 51.97 226.62 51.15H231.09C230.87 52.31 230.4 53.35 229.68 54.27C228.96 55.19 228.03 55.91 226.89 56.43C225.77 56.95 224.52 57.21 223.14 57.21C221.52 57.21 220.08 56.87 218.82 56.19C217.56 55.49 216.58 54.5 215.88 53.22C215.18 51.94 214.83 50.43 214.83 48.69C214.83 46.95 215.18 45.44 215.88 44.16C216.58 42.86 217.56 41.87 218.82 41.19C220.08 40.51 221.52 40.17 223.14 40.17C224.78 40.17 226.21 40.51 227.43 41.19C228.67 41.87 229.62 42.81 230.28 44.01C230.96 45.19 231.3 46.54 231.3 48.06ZM227.04 47.64C227.1 46.28 226.74 45.25 225.96 44.55C225.2 43.85 224.26 43.5 223.14 43.5C222 43.5 221.04 43.85 220.26 44.55C219.48 45.25 219.05 46.28 218.97 47.64H227.04Z" fill="white"/>
</svg>
